PathFileType	4	(X/Y/Z)	./resultDataOpenSim/trcMotMarkerGrf/sub06/qtm-01-03.trc
DataRate	CameraRate	NumFrames	NumMarkers	Units	OrigDataRate	OrigDataStartFrame	OrigNumFrames
250.000000	250.000000	7	24	m	250.000000	129	512
Frame#	Time	L.Toe.Tip			R.Toe.Tip			L.Ankle.Lat			R.Ankle.Lat			L.Ankle.Med			R.Ankle.Med			L.Heel			R.Heel			L.Knee.Lat			R.Knee.Lat			L.Knee.Med			R.Knee.Med			L.Thigh.Upper			R.Thigh.Upper			L.ASIS			R.ASIS			V.Sacral			L.Acromium			R.Acromium			C7			L.Elbow			R.Elbow			L.Wrist.Lat			R.Wrist.Lat
		X1	Y1	Z1	X2	Y2	Z2	X3	Y3	Z3	X4	Y4	Z4	X5	Y5	Z5	X6	Y6	Z6	X7	Y7	Z7	X8	Y8	Z8	X9	Y9	Z9	X10	Y10	Z10	X11	Y11	Z11	X12	Y12	Z12	X13	Y13	Z13	X14	Y14	Z14	X15	Y15	Z15	X16	Y16	Z16	X17	Y17	Z17	X18	Y18	Z18	X19	Y19	Z19	X20	Y20	Z20	X21	Y21	Z21	X22	Y22	Z22	X23	Y23	Z23	X24	Y24	Z24

129	0.512	-0.16375109	0.12142694	-0.081482559	-0.74807837	0.035197452	0.058161858	-0.29040168	0.10234742	-0.106827	-0.88200948	0.06532399	0.075554492	-0.29729727	0.11655808	-0.022516307	-0.85629582	0.086741519	-0.008885436	-0.34207501	0.042427296	-0.06123152	-0.93591168	0.047174672	0.0095468834	-0.40701976	0.45191531	-0.10242281	-0.73813273	0.42746221	0.12470225	-0.42774189	0.43381074	0.021665972	-0.75946956	0.43073837	-0.0073408578	-0.58645944	0.7998021	-0.14719146	-0.65751675	0.78056917	0.19391857	-0.52929325	0.84529238	-0.090718685	-0.54983111	0.83406428	0.1561502	-0.72122448	0.91351705	0.023708534	-0.62551635	1.3239614	-0.14904179	-0.59879481	1.3103345	0.2105928	-0.68735727	1.3530143	0.035824329	-0.73040595	1.0274134	-0.2033689	-0.61080968	0.99368406	0.30097025	-0.61859571	0.81186781	-0.24788106	-0.3775354	0.9039764	0.26978502
130	0.516	-0.1508728	0.12537311	-0.079596459	-0.74796071	0.035144508	0.058109697	-0.27713262	0.10396099	-0.10545007	-0.88158488	0.065743445	0.075287115	-0.28458595	0.11798923	-0.021219042	-0.85569677	0.086945299	-0.009153812	-0.32801947	0.043043035	-0.060430235	-0.93559584	0.047791295	0.0091773379	-0.4000111	0.45093082	-0.10137053	-0.73419459	0.42649239	0.12444088	-0.42134745	0.43266444	0.022696241	-0.75525749	0.42996008	-0.007579771	-0.57958117	0.79792613	-0.1472343	-0.65205004	0.77891584	0.19309534	-0.52261765	0.84338483	-0.090501991	-0.54466164	0.83218591	0.15624574	-0.7156775	0.91200764	0.022657794	-0.61956311	1.3220376	-0.14921409	-0.5931092	1.308528	0.21068314	-0.68161367	1.3514362	0.035745554	-0.72494513	1.0256876	-0.20300574	-0.60358577	0.99173	0.30104875	-0.61453383	0.80971957	-0.24824674	-0.36981427	0.90391895	0.26880591
131	0.52	-0.13846999	0.129056	-0.07774755	-0.74786896	0.035070834	0.058066449	-0.26434864	0.10548537	-0.10397571	-0.88135864	0.066165248	0.075020588	-0.27232248	0.11938762	-0.019830733	-0.85506146	0.087206899	-0.0094198041	-0.31445619	0.043636175	-0.059303363	-0.93526855	0.048499026	0.0088310373	-0.39293549	0.45002896	-0.10032877	-0.73018637	0.42552922	0.12420736	-0.41484368	0.43171916	0.023688273	-0.75095326	0.42916537	-0.0077742065	-0.57272604	0.79607905	-0.14725749	-0.64657318	0.77728627	0.19222162	-0.51582803	0.8414508	-0.090230713	-0.53946614	0.83031253	0.15636643	-0.71002475	0.91046344	0.021643755	-0.61356612	1.3201282	-0.14939858	-0.58746376	1.3067057	0.21076748	-0.67585704	1.3498697	0.03565314	-0.71938559	1.0239193	-0.20267241	-0.59636302	0.98978223	0.30108653	-0.61049125	0.80754275	-0.24863293	-0.36208841	0.90377704	0.26782723
132	0.524	-0.12654333	0.13243825	-0.075931254	-0.7478055	0.034975586	0.058048474	-0.25205584	0.10688705	-0.10239403	-0.88115722	0.06664155	0.074779723	-0.26052468	0.12070874	-0.018348188	-0.85440654	0.087517251	-0.0096776444	-0.30135184	0.044201853	-0.057827276	-0.93494114	0.049316769	0.0085133314	-0.38580668	0.44918274	-0.099313623	-0.7261154	0.42457725	0.12400206	-0.40820316	0.43094436	0.024652031	-0.7465491	0.42834973	-0.0079529385	-0.56586523	0.79425368	-0.14724334	-0.64112844	0.77567358	0.191396	-0.50900268	0.83947109	-0.089889907	-0.53412158	0.82847687	0.15655483	-0.70421428	0.90887388	0.020703079	-0.60752346	1.31824	-0.14959018	-0.58186476	1.3048717	0.21084538	-0.66999289	1.3482951	0.035523349	-0.7137244	1.0221221	-0.20235977	-0.58913961	0.98783541	0.30109865	-0.60645278	0.80534828	-0.24902683	-0.35437526	0.90354449	0.2668558
133	0.528	-0.11510447	0.13547957	-0.074157931	-0.74774957	0.034876683	0.058060595	-0.24027499	0.10812654	-0.10070809	-0.88083813	0.06721051	0.074587023	-0.2491563	0.12193435	-0.01675606	-0.85372866	0.087879116	-0.0099121439	-0.28875254	0.044729481	-0.056091597	-0.93461665	0.050242953	0.0082276415	-0.37862895	0.44837644	-0.098325784	-0.7219914	0.42362976	0.12381802	-0.40142878	0.43029368	0.025596791	-0.74203886	0.42751175	-0.0081387322	-0.55898848	0.79245014	-0.1471919	-0.63574274	0.77404147	0.19092162	-0.50221928	0.83746679	-0.089511096	-0.52854494	0.82671042	0.15682669	-0.69819925	0.90723127	0.01986793	-0.60142438	1.316378	-0.14978327	-0.57627613	1.3030383	0.21091315	-0.66402298	1.3467287	0.035350512	-0.70796418	1.0203175	-0.20205261	-0.58191377	0.98589084	0.30109056	-0.60243338	0.80313501	-0.24942208	-0.34675645	0.90322183	0.26590704
134	0.532	-0.10416696	0.13813749	-0.072440036	-0.74767369	0.034797451	0.05809088	-0.22902055	0.10916166	-0.098936251	-0.88039447	0.067875371	0.074442892	-0.23816453	0.1230579	-0.015044829	-0.85301553	0.088297901	-0.010107097	-0.27671158	0.045181524	-0.05414348	-0.93428964	0.051277358	0.0079825882	-0.37136832	0.44760758	-0.097352208	-0.71782079	0.42267598	0.12364714	-0.39454288	0.42971897	0.026530141	-0.73742326	0.42665545	-0.0083267701	-0.55210095	0.79068641	-0.14712073	-0.63032287	0.77232984	0.19121973	-0.49548218	0.83548913	-0.089153952	-0.52268353	0.82504177	0.15717995	-0.69196719	0.9055526	0.019154325	-0.59525662	1.3145443	-0.14997385	-0.57063191	1.3012273	0.21096111	-0.658003	1.3452074	0.035134767	-0.70211485	1.0185335	-0.20173576	-0.57467922	0.9839634	0.30105064	-0.59847145	0.80090656	-0.24981985	-0.33927502	0.90281602	0.2649872
135	0.536	-0.093732429	0.14038103	-0.070773099	-0.74757118	0.034750995	0.058118463	-0.21828914	0.10995544	-0.097104629	-0.87988273	0.068623576	0.074333423	-0.22754479	0.12404711	-0.013227061	-0.8522731	0.08877071	-0.010253204	-0.26525344	0.045515731	-0.052002316	-0.93395524	0.052430138	0.0077922429	-0.36394202	0.44687862	-0.096369338	-0.71360009	0.42171817	0.12348732	-0.38756935	0.42917915	0.027455853	-0.73270211	0.42578409	-0.0085013063	-0.54520082	0.78898621	-0.14704801	-0.62464964	0.77051958	0.19241759	-0.48875608	0.83357192	-0.088852689	-0.51657198	0.82347656	0.15758082	-0.68556517	0.90389795	0.018550112	-0.58901804	1.3127431	-0.15016352	-0.56489187	1.2994561	0.21098159	-0.65199115	1.3437613	0.034875786	-0.69618548	1.016789	-0.20140266	-0.56742731	0.98206196	0.30096471	-0.59457632	0.79868766	-0.25021878	-0.33190076	0.90233327	0.26408739
